# xmcd
#
# Track frame offsets: 
#        150
#        16684
#        40383
#        64945
#        80871
#        101586
#        117725
#        136616
#        161178
#        182959
#        203136
#        217292
#        236364
#        257376
#        279201
#
# Disc length: 4000 seconds
#
# Revision: 0
# Processed by: cddbd v1.5.2PL0 Copyright (c) Steve Scherf et al.
# Submitted via: ExactAudioCopy v0.99pb5
#
DISCID=d90f9e0f
DTITLE=Jodarok - Hukattu Aika.
DYEAR=2004
DGENRE=Hip-Hop
TTITLE0=tervetulloo (MilleniumFalkon)
TTITLE1=iha oikkuse kaikille
TTITLE2=hukassa ollaan (feat. Soppa, Dxxxa and Timmi)
TTITLE3=oaras oiittaa semifreestyke
TTITLE4=tilitä papille freestyke
TTITLE5=camp MRQ
TTITLE6=jumissa (MilleniumFalkon)
TTITLE7=laitonta mainosta
TTITLE8=tytöt on hölmöjä 1 (feat. TKK)
TTITLE9=kaikki syyniin freestyke
TTITLE10=123 ja 4 (feat. Soppa)
TTITLE11=räppielämää
TTITLE12=säätää elääkseen (feat. Puukko-B)
TTITLE13=tytöt on hölmöjä (feat. TKK)
TTITLE14=se on skitso (Live @ Green Grass) (feat. Psyko-H)
EXTD=
EXTT0=
EXTT1=
EXTT2=
EXTT3=
EXTT4=
EXTT5=
EXTT6=
EXTT7=
EXTT8=
EXTT9=
EXTT10=
EXTT11=
EXTT12=
EXTT13=
EXTT14=
PLAYORDER=
